<?xml version="1.0" encoding="iso-8859-1"?>
<!-- Uploaded to: SVG Repo, www.svgrepo.com, Generator: SVG Repo Mixer Tools -->
<svg version="1.1" id="Capa_1" xmlns="http://www.w3.org/2000/svg" xmlns:xlink="http://www.w3.org/1999/xlink" 
	 viewBox="0 0 469.477 469.477" xml:space="preserve">
<g>
	<g>
		<g>
			<ellipse style="fill:#45CE83;" cx="100.495" cy="114.744" rx="100.495" ry="113.994"/>
			<path style="fill:#FFFFFF;" d="M181.99,120.745c-3.313,0-6-2.686-6-6c0-31.437-14.367-60.887-37.495-76.857
				c-2.727-1.883-3.411-5.62-1.528-8.346c1.883-2.727,5.62-3.411,8.347-1.528c26.324,18.177,42.677,51.41,42.677,86.731
				C187.99,118.058,185.303,120.745,181.99,120.745z"/>
			<path style="fill:#FFFFFF;" d="M120.748,28.719c-0.569,0-1.148-0.082-1.722-0.253c-6.025-1.802-12.26-2.716-18.53-2.716
				c-3.313,0-6-2.686-6-6s2.687-6,6-6c7.436,0,14.828,1.083,21.97,3.22c3.174,0.95,4.978,4.293,4.029,7.468
				C125.715,27.039,123.33,28.719,120.748,28.719z"/>
			<polygon style="fill:#45CE83;" points="78.412,252.142 100.495,213.894 122.578,252.142 			"/>
			<rect x="94.495" y="252.142" style="fill:#46B9CC;" width="12" height="216.585"/>
		</g>
		<g>
			<ellipse style="fill:#F4E84A;" cx="368.982" cy="114.744" rx="100.495" ry="113.994"/>
			<path style="fill:#FFFFFF;" d="M450.477,120.745c-3.313,0-6-2.686-6-6c0-31.437-14.367-60.887-37.495-76.857
				c-2.727-1.883-3.411-5.62-1.528-8.346c1.883-2.728,5.62-3.411,8.347-1.528c26.324,18.177,42.677,51.41,42.677,86.731
				C456.477,118.058,453.79,120.745,450.477,120.745z"/>
			<path style="fill:#FFFFFF;" d="M389.234,28.719c-0.569,0-1.148-0.082-1.722-0.253c-6.025-1.802-12.26-2.716-18.53-2.716
				c-3.313,0-6-2.686-6-6s2.687-6,6-6c7.437,0,14.828,1.083,21.97,3.22c3.175,0.95,4.979,4.293,4.028,7.468
				C394.201,27.039,391.817,28.719,389.234,28.719z"/>
			<polygon style="fill:#F4E84A;" points="346.899,252.142 368.982,213.894 391.064,252.142 			"/>
			<rect x="362.982" y="252.142" style="fill:#46B9CC;" width="12" height="216.585"/>
		</g>
	</g>
	<g>
		<ellipse style="fill:#F48438;" cx="234.738" cy="191.24" rx="100.495" ry="113.994"/>
		<path style="fill:#FFFFFF;" d="M316.233,197.241c-3.313,0-6-2.686-6-6c0-31.437-14.367-60.887-37.494-76.857
			c-2.727-1.883-3.411-5.62-1.528-8.347c1.883-2.727,5.62-3.411,8.347-1.528c26.323,18.177,42.676,51.41,42.676,86.731
			C322.233,194.554,319.546,197.241,316.233,197.241z"/>
		<path style="fill:#FFFFFF;" d="M254.99,105.216c-0.569,0-1.148-0.082-1.722-0.253c-6.025-1.802-12.26-2.716-18.53-2.716
			c-3.313,0-6-2.686-6-6s2.687-6,6-6c7.437,0,14.828,1.083,21.97,3.22c3.175,0.95,4.979,4.293,4.028,7.468
			C259.958,103.535,257.573,105.216,254.99,105.216z"/>
		<polygon style="fill:#F48438;" points="212.656,328.638 234.738,290.39 256.821,328.638 		"/>
		<rect x="228.738" y="328.638" style="fill:#46B9CC;" width="12" height="140.089"/>
	</g>
</g>
</svg>