<?xml version="1.0" encoding="iso-8859-1"?>
<!-- Uploaded to: SVG Repo, www.svgrepo.com, Generator: SVG Repo Mixer Tools -->
<svg height="800px" width="800px" version="1.1" id="Layer_1" xmlns="http://www.w3.org/2000/svg" xmlns:xlink="http://www.w3.org/1999/xlink" 
	 viewBox="0 0 512.002 512.002" xml:space="preserve">
<path style="fill:#F44A46;" d="M177.223,322.505h8.887c9.212,0,14.709-10.514,9.218-17.911c-3.004-4.046-7.52-7.173-14.306-7.173
	c-8.205,0-12.355,4.571-14.416,9.81C163.715,314.578,169.329,322.505,177.223,322.505z"/>
<path style="fill:#427451;" d="M324.665,368.024h8.887c9.212,0,14.709-10.514,9.218-17.911c-3.004-4.046-7.52-7.173-14.306-7.173
	c-8.205,0-12.355,4.571-14.416,9.81C311.158,360.096,316.771,368.024,324.665,368.024z"/>
<ellipse style="fill:#E6E6E6;" cx="268.485" cy="105.348" rx="76.547" ry="97.225"/>
<path style="fill:#D1D1D1;" d="M319.497,177.838c17.387-19.759,25.293-46.41,25.293-72.484c0-47.436-26.624-86.93-62.002-95.499
	c20.969,17.343,34.896,47.38,34.896,81.535c0,13.216-2.049,25.813-5.809,37.3c-6.502,0.932-12.749,2.875-18.653,5.744
	c-12.515,6.082-27.544,1.189-34.671-10.761c-13.975-23.431-36.112-38.568-61.038-38.568c-1.316,0-2.623,0.042-3.923,0.126
	c-1.076,6.494-1.644,13.224-1.644,20.124c0,36.572,15.899,68.421,39.392,85.022C260.122,210.723,296.806,203.624,319.497,177.838z"
	/>
<ellipse style="fill:#FF705B;" cx="181.604" cy="200.19" rx="76.547" ry="97.225"/>
<ellipse style="fill:#42A555;" cx="330.398" cy="245.715" rx="76.547" ry="97.225"/>
<path style="fill:#F44A46;" d="M211.691,110.769c13.993,17.619,22.663,42.049,22.663,69.055c0,53.698-34.269,97.229-76.542,97.229
	c-10.682,0-20.852-2.784-30.089-7.805c13.832,17.415,32.865,28.174,53.879,28.174c42.274,0,76.542-43.531,76.542-97.229
	C258.145,160.064,239.005,125.618,211.691,110.769z"/>
<path style="fill:#427451;" d="M360.489,156.286c13.993,17.619,22.663,42.049,22.663,69.055c0,53.698-34.269,97.229-76.542,97.229
	c-10.682,0-20.852-2.784-30.089-7.805c13.832,17.415,32.865,28.174,53.879,28.174c42.274,0,76.542-43.531,76.542-97.229
	C406.942,205.583,387.804,171.135,360.489,156.286z"/>
<path d="M415.066,245.711c0-50.702-28.933-93.15-67.334-103.13c3.595-11.842,5.42-24.321,5.42-37.228
	C353.153,47.262,315.173,0,268.488,0c-22.626,0-43.873,10.912-59.828,30.726c-13.975,17.352-22.491,39.903-24.404,64.171
	c-0.882-0.034-1.766-0.056-2.654-0.056c-46.685,0-84.665,47.261-84.665,105.353c0,48.815,26.82,89.977,63.086,101.881
	c-0.348,0.704-0.679,1.427-0.978,2.185c-2.318,5.891-1.559,12.554,2.03,17.822c2.777,4.078,6.944,6.9,11.629,8.014
	c-2.852,28.828,3.722,47.964,10.102,59.247c6.677,11.809,14.725,18.843,22.507,25.645c8.27,7.229,16.822,14.704,25.547,29.054
	c7.269,11.954,16.417,30.297,16.341,36.981c-0.257,8.355,0.158,21.392,0.217,23.127c0.147,4.392,3.753,7.853,8.114,7.853
	c0.092,0,0.184-0.001,0.276-0.004c4.484-0.149,7.998-3.905,7.849-8.39c-0.178-5.313-0.525-20.035-0.054-25.18
	c1.923-17.084,11.139-29.526,18.359-37.221c6.472-6.895,12.969-10.88,19.847-15.1c8.944-5.487,18.193-11.161,26.802-22.933
	c6.66-9.108,10.277-18.004,11.313-28.093c4.732-1.628,8.725-5.044,11.071-9.707c2.817-5.601,2.739-12.042-0.056-17.449
	C387.731,336.472,415.066,294.993,415.066,245.711z M221.313,40.916c12.811-15.908,29.564-24.669,47.175-24.669
	c37.725,0,68.418,39.973,68.418,89.106c0,12.22-1.866,23.969-5.526,35.021c-0.327-0.004-0.652-0.015-0.979-0.015
	c-26.531,0-50.247,15.268-65.782,39.109c-6.54-40.624-31.913-72.881-64.266-82.018C201.805,75.934,209.141,56.031,221.313,40.916z
	 M113.184,200.193c0-49.132,30.692-89.105,68.418-89.105s68.418,39.973,68.418,89.105c0,6.689-0.587,13.198-1.665,19.471
	c-0.255,1.24-0.487,2.491-0.706,3.749c-7.865,37.907-34.488,65.887-66.047,65.887C143.876,289.299,113.184,249.327,113.184,200.193z
	 M174.165,310.207c1.336-3.398,3.194-4.661,6.856-4.661c3.386,0,5.786,1.199,7.785,3.891c0.886,1.195,0.615,2.354,0.232,3.115
	c-0.276,0.55-1.116,1.829-2.928,1.829h-8.887c-1.563,0-2.422-1.014-2.72-1.449C174.168,312.443,173.681,311.436,174.165,310.207z
	 M216.005,402.753c-7.374-6.446-13.743-12.012-19.057-21.41c-9.316-16.476-9.386-37.039-7.928-50.935
	c6.221-0.927,11.632-4.793,14.532-10.555c2.881-5.729,2.744-12.34-0.244-17.823c14.223-4.698,26.986-13.898,37.242-26.295
	c-3.086,32.458-3.736,64.798-1.894,96.629c1.287,22.246,3.77,44.524,5.87,62.877C234.573,418.981,224.712,410.364,216.005,402.753z
	 M315.496,393.581c-6.719,9.187-13.885,13.584-22.183,18.675c-7.141,4.38-15.235,9.346-23.199,17.832
	c-2.282,2.432-5.427,5.786-8.659,10.183c-0.144-1.262-0.29-2.542-0.44-3.846c-2.141-18.699-4.806-41.969-6.138-64.998
	c-1.47-25.412-1.304-51.163,0.453-77.043c10.731,25.524,29.621,44.93,52.336,52.818c-0.422,0.824-0.823,1.673-1.177,2.574
	c-2.318,5.891-1.56,12.554,2.028,17.821c3.402,4.994,8.885,8.11,14.856,8.505C322.295,382.206,319.775,387.73,315.496,393.581z
	 M336.48,358.071c-0.276,0.55-1.116,1.827-2.923,1.829c-0.549,0.017-8.891,0-8.891,0c-1.564,0-2.423-1.014-2.721-1.449
	c-0.334-0.49-0.821-1.495-0.337-2.726c1.336-3.397,3.194-4.66,6.855-4.66c3.386,0,5.786,1.2,7.785,3.892
	C337.134,356.149,336.863,357.308,336.48,358.071z M330.4,334.816c-37.727,0-68.419-39.972-68.419-89.105
	c0-6.687,0.587-13.196,1.665-19.467c0.255-1.241,0.487-2.495,0.706-3.753c7.866-37.906,34.489-65.886,66.048-65.886
	c37.725,0,68.418,39.972,68.418,89.105S368.126,334.816,330.4,334.816z"/>
</svg>